# xmcd
#
# Track frame offsets: 
#        150
#        19903
#        34732
#        49976
#        66618
#        92654
#        106982
#        124224
#        138558
#        154153
#        168699
#        189986
#
# Disc length: 2751 seconds
#
# Revision: 2
# Processed by: cddbd v1.5.2PL0 Copyright (c) Steve Scherf et al.
# Submitted via: ExactAudioCopy v0.99pb3
#
DISCID=ae0abd0c
DTITLE=Lisa Ono - Dans Mon Ile
DYEAR=2003
DGENRE=Jazz
TTITLE0=C'Est Si Bon
TTITLE1=Rever...
TTITLE2=Les Feuilles Mortes
TTITLE3=Les Parapluies De Cherbourg
TTITLE4=J' Ai Vu
TTITLE5=Salade De Fruits
TTITLE6=Watch What Happens
TTITLE7=Elle, Lui, Nous 
TTITLE8=Dans Mon Ile
TTITLE9=Pour Toi
TTITLE10=La Vie En Rose
TTITLE11=Derniere Valse
EXTD=YEAR: 2003
EXTT0=
EXTT1=
EXTT2=
EXTT3=
EXTT4=
EXTT5=
EXTT6=
EXTT7=
EXTT8=
EXTT9=
EXTT10=
EXTT11=
PLAYORDER=
